<?xml version="1.0" encoding="UTF-8"?>
<!-- Generator: Adobe Illustrator 17.0.0, SVG Export Plug-In . SVG Version: 6.00 Build 0)  -->
<!DOCTYPE svg PUBLIC "-//W3C//DTD SVG 1.1//EN" "http://www.w3.org/Graphics/SVG/1.1/DTD/svg11.dtd">
<svg version="1.1" id="Layer_1" xmlns="http://www.w3.org/2000/svg" xmlns:xlink="http://www.w3.org/1999/xlink" x="0px" y="0px" width="765.517px" height="155.172px" viewBox="0 0 765.517 155.172" enable-background="new 0 0 765.517 155.172" xml:space="preserve">
<g>
	<defs>
		<rect id="SVGID_1_" x="29.326" y="20.74" width="707.912" height="118.752"/>
	</defs>
	<clipPath id="SVGID_2_">
		<use xlink:href="#SVGID_1_" overflow="visible"/>
	</clipPath>
	<path clip-path="url(#SVGID_2_)" fill="#009BDE" d="M534.007,21.702h-82.14l-14.816,31.464h49.568l-6.332,13.08h-11.624h-13.172   h-24.524l-19.256,41.084h-13.172l37.712-78.564c1.872-3.9,0.228-7.064-3.672-7.064H304.011l-56.928,117.66h40.304l41.704-86.196   h9.02l-41.704,86.196h38.06l41.708-86.196h9.02l-41.708,86.196h32.612c0.092,0,0.184-0.02,0.272-0.024h68.552l-0.012,0.024h32.616   c3.9,0,8.572-3.156,10.448-7.056l49.7-103.54C539.547,24.866,537.907,21.702,534.007,21.702 M460.415,107.33h-11.012l5.92-12.632   h11.2L460.415,107.33z M265.031,88.27c0,0,0.58-7.208-3.46-1.588c-2.756,3.836-9.516,9.376-14.852,8.656c0,0-4.468-1.156-2.02-5.48   c2.08-3.668,4.288-9.488,1.012-7.788c-3.892,2.016-6.636,2.888-11.828,0.288c-1.844-0.924-4.692-2.82-5.808-5.948   c-0.764-2.136-1.016-4.384,2.172-5.468c4.856-1.644,6.876-5.16,6.876-5.16s-5.3-3.144-8.992-0.94   c-3.028,1.804-3.844,2.78-6.828,0.98c-2.224-1.344-13.516-7.688-18.996-15.764c-5.484-8.076-19.456-25.032-32.444-28.412   c-10.88-2.824-19.612,1.592-25.956,4.332c-6.348,2.736-17.16,3.892-27.112,2.88c-9.948-1.008-37.636-5.624-49.604-1.3   C55.223,31.89,33.695,37.926,29.515,62.434c0,0-0.704,3.804,0.604,10.068c1.588,7.58,6.284,7.988,7.996,8.096   c-0.064,1.072-0.348,3.132-0.484,4.208c-1.156,9.088-3.46,12.116-4.616,14.28c-1.152,2.16-2.74,3.46-1.44,12.544   c1.3,9.084,0.432,18.744,0,22.352c-0.432,3.604,1.7,5.116,8.8,5.324c7.624,0.22,11.424,0.236,14.16,0.092   c2.744-0.144,2.488-3.248-2.484-9.888c-1.976-2.628-3.028-7.496-2.884-12.832c0.144-5.336,0-8.652,4.036-10.96   c4.04-2.308,7.644-4.328,8.8-6.344c0,0,3.744,6.2,4.612,11.248c0.864,5.048,0,7.496,5.336,13.556   c5.332,6.056,5.02,10.32,5.744,12.624c0.724,2.308,3.46,2.452,8.224,2.596c4.756,0.144,10.012,0,11.892,0   c1.74,0,4.676-2.636,0.156-6.408c-4.312-3.6-11.164-12.848-12.32-16.168c-1.152-3.32-3.316-5.048-2.304-12.548   c1.008-7.5,0.144-10.812,0.144-10.812s6.2,0.144,11.536,1.876c5.332,1.728,18.168,8.936,28.836,9.66   c10.672,0.72,22.788-4.04,24.664-4.04c0,0,2.16,7.784,2.016,11.248c-0.144,3.464,0.576,7.36,0.576,13.556   c0,6.204-4.072,13.488,8.62,13.66c12.984,0.176,14.444,0.028,12.484-3.1c-1.68-2.684-3.268-6.064-3.124-7.648   c0.144-1.588,1.44-1.872,5.188-2.02c3.752-0.144,8.628-1.004,12.064-4.968c4.008-4.624,5.236-5.396,4.228-15.056   c-1.012-9.66,0.616-13.428,0.616-13.428s4.772,0.26,13.276,9.636c8.512,9.368,25.288,22.568,40.38,13.408   C257.723,108.426,263.159,103.126,265.031,88.27 M38.219,79.29c-0.524-0.08-1.152-0.036-2.044-0.5   c-5.716-2.936-2.88-8.436-2.712-8.716c1.74-2.916,3.524-3.632,3.524-3.632S38.311,72.402,38.219,79.29 M172.943,109.294   c-1.588,1.296-4.468,0.864-4.468,0.864s-0.2,0.176-0.056-3.14c0.144-3.32,3.028-7.068,3.028-7.068s1.156,1.152,1.872,4.036   C174.043,106.874,174.531,107.998,172.943,109.294 M722.015,53.166l15.22-31.46h-85.516c-3.9,0-8.576,3.16-10.448,7.06l-31.78,66.2   h40.136l0.008-0.008l11.972-0.02l-6.236,12.572h-104.22l27.276-54.344h40.096l15.22-31.46h-74.204c-3.904,0-8.576,3.16-10.452,7.06   l-49.704,103.54c-1.868,3.9-0.224,7.06,3.676,7.06h176.356l15.412-31.856l20.008-41.364h-50.736l6.516-12.98H722.015z"/>
</g>
</svg>